# xmcd
#
# Track frame offsets:
#	150
#	15862
#	28462
#	40025
#	50445
#	61162
#	72000
#	83405
#	92950
#	103255
#
# Disc length: 1512 seconds
#
# Revision: 2
# Processed by: cddbd v1.5.2PL0 Copyright (c) Steve Scherf et al.
# Submitted via: audiograbber 1.83.01
#
DISCID=7505e60a
DTITLE=Impressions - It's All Right
DYEAR=1995
DGENRE=Oldies
TTITLE0=Amen
TTITLE1=It's All Right
TTITLE2=Keep On Pushing
TTITLE3=Gypsy Woman
TTITLE4=A Woman Who Loves Me
TTITLE5=See The Real Me
TTITLE6=Talking About My Baby
TTITLE7=I Love You (Yeah)
TTITLE8=Woman's Got Soul
TTITLE9=You Always Hurt Me
EXTD=
EXTT0=
EXTT1=
EXTT2=
EXTT3=
EXTT4=
EXTT5=
EXTT6=
EXTT7=
EXTT8=
EXTT9=
PLAYORDER=
